<?xml version="1.0" encoding="UTF-8"?> <svg xmlns="http://www.w3.org/2000/svg" width="175.43" height="56" viewBox="0 0 175.43 56"><title>Asset 1</title><g id="Layer_2" data-name="Layer 2"><g id="Artwork"><g style="isolation:isolate"><g style="isolation:isolate"><path d="M61,16a4.19,4.19,0,0,1,4.4-4.21,3.9,3.9,0,0,1,3.58,2l-1.54.73a2.32,2.32,0,0,0-2-1.18A2.55,2.55,0,0,0,62.88,16a2.56,2.56,0,0,0,2.56,2.68,2.29,2.29,0,0,0,2-1.19l1.54.72a3.91,3.91,0,0,1-3.58,2A4.18,4.18,0,0,1,61,16Z" style="fill:#3c356b"></path></g><g style="isolation:isolate"><path d="M75.6,18.7H71.85l-.53,1.41h-2L72.6,12h2.24l3.24,8.14h-2Zm-3.27-1.5h2.78l-1.39-3.73Z" style="fill:#3c356b"></path><path d="M79.11,12H83a2.62,2.62,0,1,1,0,5.22H80.9v2.92H79.11Zm3.69,1.49H80.9V15.7h1.9a1.12,1.12,0,1,0,0-2.24Z" style="fill:#3c356b"></path><path d="M87.21,12h5.94v1.49H89v1.77h4.07v1.49H89v1.89h4.15v1.5H87.21Z" style="fill:#3c356b"></path><path d="M98.27,12h1.79v8.14H98.27Z" style="fill:#3c356b"></path><path d="M103.76,14.64v5.47H102V12h1.84l3.89,5.27V12h1.79v8.14h-1.73Z" style="fill:#3c356b"></path><path d="M113.19,14.64v5.47H111.4V12h1.84l3.89,5.27V12h1.78v8.14h-1.72Z" style="fill:#3c356b"></path></g><g style="isolation:isolate"><path d="M124.79,11.83A4.21,4.21,0,1,1,120.41,16,4.16,4.16,0,0,1,124.79,11.83Zm0,1.54A2.5,2.5,0,0,0,122.25,16a2.55,2.55,0,1,0,5.1,0A2.51,2.51,0,0,0,124.79,13.37Z" style="fill:#3c356b"></path></g><g style="isolation:isolate"><path d="M129.55,12h2l2.33,6.26L136.23,12h2L135,20.11H132.8Z" style="fill:#3c356b"></path></g><g style="isolation:isolate"><path d="M144.06,18.7h-3.75l-.53,1.41h-2L141.06,12h2.24l3.24,8.14h-2Zm-3.28-1.5h2.78l-1.38-3.73Z" style="fill:#3c356b"></path></g><g style="isolation:isolate"><path d="M148.7,13.49h-2.45V12h6.69v1.52H150.5v6.62h-1.8Z" style="fill:#3c356b"></path><path d="M154.34,12h1.79v8.14h-1.79Z" style="fill:#3c356b"></path><path d="M162,11.83A4.21,4.21,0,1,1,157.64,16,4.16,4.16,0,0,1,162,11.83Zm0,1.54A2.5,2.5,0,0,0,159.47,16a2.55,2.55,0,1,0,5.1,0A2.51,2.51,0,0,0,162,13.37Z" style="fill:#3c356b"></path><path d="M169.7,14.64v5.47h-1.78V12h1.83l3.89,5.27V12h1.79v8.14h-1.72Z" style="fill:#3c356b"></path></g><g style="isolation:isolate"><path d="M68.64,32.61h-2L66,32a3.73,3.73,0,0,1-2.29.76c-1.53,0-2.77-.78-2.77-2.36a2.61,2.61,0,0,1,1.82-2.35,3.71,3.71,0,0,1-.57-1.75,2.16,2.16,0,0,1,2.4-1.95c1.19,0,2.2.63,2.2,1.72,0,1.25-1,1.77-2.05,2.23.24.33.51.64.72.88s.47.56.71.83a5.77,5.77,0,0,0,.76-1.57l1.29.57A9.42,9.42,0,0,1,67,31C67.52,31.5,68.05,32,68.64,32.61Zm-3.52-1.5c-.38-.4-.73-.78-.94-1s-.56-.7-.84-1.08a1.48,1.48,0,0,0-.73,1.25,1.26,1.26,0,0,0,1.3,1.28A2.12,2.12,0,0,0,65.12,31.11Zm-1-3.68c.72-.32,1.26-.68,1.26-1.27a.69.69,0,0,0-.74-.69.86.86,0,0,0-.88.87A2.41,2.41,0,0,0,64.12,27.43Z" style="fill:#3c356b"></path><path d="M75.23,26H72.78V24.47h6.69V26H77v6.61h-1.8Z" style="fill:#3c356b"></path><path d="M80.87,24.47h5.94V26H82.66v1.77h4.06v1.49H82.66v1.89h4.15v1.5H80.87Z" style="fill:#3c356b"></path><path d="M88.06,28.55a4.19,4.19,0,0,1,4.4-4.21,3.9,3.9,0,0,1,3.58,2l-1.54.73a2.3,2.3,0,0,0-2-1.18,2.67,2.67,0,0,0,0,5.34,2.29,2.29,0,0,0,2-1.18l1.54.72a3.94,3.94,0,0,1-3.58,2A4.19,4.19,0,0,1,88.06,28.55Z" style="fill:#3c356b"></path><path d="M103.11,29.2h-4v3.41H97.36V24.47h1.78v3.2h4v-3.2h1.8v8.14h-1.8Z" style="fill:#3c356b"></path><path d="M108.59,27.14v5.47h-1.78V24.47h1.83l3.89,5.27V24.47h1.79v8.14H112.6Z" style="fill:#3c356b"></path><path d="M120.21,24.34a4.21,4.21,0,1,1-4.38,4.21A4.16,4.16,0,0,1,120.21,24.34Zm0,1.54a2.49,2.49,0,0,0-2.54,2.67,2.55,2.55,0,1,0,5.09,0A2.49,2.49,0,0,0,120.21,25.88Z" style="fill:#3c356b"></path></g><g style="isolation:isolate"><path d="M126.1,24.47h1.79v6.62h3.55v1.52H126.1Z" style="fill:#3c356b"></path></g><g style="isolation:isolate"><path d="M136.57,24.34a4.21,4.21,0,1,1-4.38,4.21A4.16,4.16,0,0,1,136.57,24.34Zm0,1.54A2.49,2.49,0,0,0,134,28.55a2.55,2.55,0,1,0,5.1,0A2.5,2.5,0,0,0,136.57,25.88Z" style="fill:#3c356b"></path></g><g style="isolation:isolate"><path d="M146.54,24.34A4,4,0,0,1,150,26.12l-1.49.78a2.39,2.39,0,0,0-2-1,2.67,2.67,0,0,0,0,5.34,2.89,2.89,0,0,0,1.81-.62v-1h-2.24V28.12h4v3.11a4.72,4.72,0,0,1-3.57,1.54,4.22,4.22,0,1,1,0-8.43Z" style="fill:#3c356b"></path></g><g style="isolation:isolate"><path d="M153.88,29.28l-3.23-4.81h2l2.09,3.27,2.06-3.27h2l-3.21,4.81v3.33h-1.79Z" style="fill:#3c356b"></path></g><g style="isolation:isolate"><path d="M61.44,36.16h1.79V44.3H61.44Z" style="fill:#3c356b"></path><path d="M66.93,38.83V44.3H65.14V36.16H67l3.89,5.27V36.16h1.78V44.3H70.93Z" style="fill:#3c356b"></path><path d="M74.57,36.16h1.78V44.3H74.57Z" style="fill:#3c356b"></path><path d="M80.2,37.68H77.75V36.16h6.7v1.52H82V44.3H80.2Z" style="fill:#3c356b"></path><path d="M85.84,36.16h1.79V44.3H85.84Z" style="fill:#3c356b"></path></g><g style="isolation:isolate"><path d="M94.88,42.89H91.13l-.52,1.41h-2l3.25-8.14h2.24l3.23,8.14h-2Zm-3.27-1.5h2.78L93,37.66Z" style="fill:#3c356b"></path></g><g style="isolation:isolate"><path d="M99.53,37.68H97.08V36.16h6.69v1.52h-2.44V44.3h-1.8Z" style="fill:#3c356b"></path><path d="M105.17,36.16H107V44.3h-1.78Z" style="fill:#3c356b"></path><path d="M108,36.16h2l2.33,6.26,2.32-6.26h2l-3.23,8.14h-2.24Z" style="fill:#3c356b"></path><path d="M117.73,36.16h5.94v1.48h-4.16v1.77h4.07V40.9h-4.07v1.89h4.16V44.3h-5.94Z" style="fill:#3c356b"></path></g></g><circle cx="31.59" cy="1.82" r="1.82" style="fill:#3c356b"></circle><circle cx="23.34" cy="2.08" r="1.82" style="fill:#3c356b"></circle><circle cx="15.55" cy="4.81" r="1.82" style="fill:#3c356b"></circle><circle cx="8.96" cy="9.79" r="1.82" style="fill:#3c356b"></circle><circle cx="4.24" cy="16.6" r="1.82" style="fill:#3c356b"></circle><circle cx="1.82" cy="24.51" r="1.82" style="fill:#3c356b"></circle><circle cx="2.05" cy="32.73" r="1.82" style="fill:#3c356b"></circle><circle cx="4.77" cy="40.47" r="1.82" style="fill:#3c356b"></circle><circle cx="9.81" cy="47.08" r="1.82" style="fill:#3c356b"></circle><circle cx="16.58" cy="51.76" r="1.82" style="fill:#3c356b"></circle><circle cx="24.53" cy="54.18" r="1.82" style="fill:#3c356b"></circle><circle cx="32.75" cy="53.95" r="1.82" style="fill:#3c356b"></circle><circle cx="40.57" cy="51.27" r="1.82" style="fill:#3c356b"></circle><circle cx="47.15" cy="46.25" r="1.82" style="fill:#3c356b"></circle><circle cx="51.85" cy="39.49" r="1.82" style="fill:#3c356b"></circle><circle cx="54.18" cy="31.58" r="1.82" style="fill:#3c356b"></circle><circle cx="53.98" cy="23.3" r="1.82" style="fill:#3c356b"></circle><rect x="28.06" y="22.15" width="13.32" height="2.97" style="fill:#3c356b"></rect><rect x="33.19" y="22.15" width="3.12" height="13.31" style="fill:#3c356b"></rect><rect x="22.79" y="27.18" width="3.12" height="8.28" style="fill:#3c356b"></rect><rect x="22.79" y="22.15" width="3.12" height="2.97" style="fill:#3c356b"></rect><rect x="43.38" y="27.18" width="3.12" height="8.28" style="fill:#3c356b"></rect><rect x="43.38" y="22.15" width="3.12" height="2.97" style="fill:#3c356b"></rect><path d="M15,32.9a4.09,4.09,0,1,1,0-8.18,4,4,0,0,1,3.18,1.59l2.45-1.55A6.85,6.85,0,0,0,15,21.82a7,7,0,0,0,0,14A6.89,6.89,0,0,0,20.61,33l-2.43-1.58A4,4,0,0,1,15,32.9Z" style="fill:#3c356b"></path><rect x="49.14" y="15.53" width="3.12" height="3.11" style="fill:#de7f6f"></rect><rect x="42.9" y="9.72" width="3.12" height="3.11" style="fill:#de7f6f"></rect><rect x="36.8" y="3.83" width="3.12" height="3.11" style="fill:#de7f6f"></rect></g></g></svg> 